<?xml version="1.0" standalone="no"?>
<!DOCTYPE svg PUBLIC "-//W3C//DTD SVG 20010904//EN"
 "http://www.w3.org/TR/2001/REC-SVG-20010904/DTD/svg10.dtd">
<svg version="1.0" xmlns="http://www.w3.org/2000/svg"
 width="131.000000pt" height="131.000000pt" viewBox="0 0 131.000000 131.000000"
 preserveAspectRatio="xMidYMid meet">
<metadata>
Created by potrace 1.11, written by Peter Selinger 2001-2013
</metadata>
<g transform="translate(0.000000,131.000000) scale(0.100000,-0.100000)"
fill="#000000" stroke="none">
<path d="M1101 1266 l-42 -43 -42 21 c-52 26 -206 32 -285 11 -194 -51 -372
-194 -496 -397 -9 -16 -23 -28 -31 -28 -17 0 -55 -35 -55 -50 0 -5 9 -10 20
-10 24 0 24 0 2 -75 -49 -163 1 -333 120 -403 15 -9 28 -21 28 -27 0 -25 61
-134 96 -171 75 -80 179 -108 276 -75 82 28 145 126 155 242 l6 68 58 45 c82
64 119 118 119 172 0 32 -6 49 -22 64 -34 32 -131 25 -219 -17 l-66 -31 -31
24 c-46 37 -124 72 -173 80 -24 4 -40 3 -36 -2 4 -4 20 -10 35 -12 36 -4 120
-45 156 -75 l30 -24 -95 -92 c-52 -51 -89 -91 -82 -89 6 2 36 26 65 54 29 28
71 62 93 77 l40 27 18 -22 c23 -30 58 -96 67 -129 8 -26 5 -29 -44 -53 -128
-63 -264 -69 -370 -17 -36 18 -66 39 -69 50 -8 34 -6 155 5 221 6 36 24 102
40 146 l29 82 42 6 c62 9 191 17 314 21 59 2 118 4 131 4 12 1 22 6 22 11 0 6
-85 10 -235 10 -135 0 -235 4 -235 9 0 15 80 113 134 164 57 54 149 109 213
128 23 6 40 16 37 20 -9 15 -149 -44 -219 -92 -65 -44 -132 -113 -184 -189
-14 -19 -26 -37 -27 -39 -2 -1 -19 -5 -40 -8 l-36 -5 23 42 c44 77 151 189
237 246 85 57 166 86 258 91 81 5 178 -9 190 -29 3 -5 -6 -26 -19 -46 -14 -20
-30 -49 -36 -63 -11 -30 -4 -68 13 -71 6 0 18 -2 26 -3 24 -2 67 26 79 52 14
31 14 86 -1 118 -11 24 -8 29 31 69 24 24 39 46 34 49 -6 4 -29 -13 -52 -37z
m-41 -149 c0 -48 -23 -89 -45 -81 -8 4 -15 13 -15 22 0 22 40 102 51 102 5 0
9 -19 9 -43z m-705 -334 c-36 -95 -57 -197 -58 -290 -2 -100 -3 -102 -19 -80
-53 67 -57 233 -10 335 21 45 23 47 63 50 26 2 30 0 24 -15z m634 -191 c20
-38 -25 -121 -101 -186 l-42 -37 -23 51 c-12 29 -34 65 -48 82 -14 16 -25 33
-25 36 0 7 39 27 110 57 51 21 117 20 129 -3z m-167 -323 c-13 -138 -90 -235
-196 -246 -99 -10 -201 58 -250 168 -16 33 -26 62 -24 64 2 3 24 -2 48 -9 70
-20 201 -12 295 18 44 14 87 30 95 36 24 16 35 6 32 -31z"/>
</g>
</svg>
